<svg id="visual" viewBox="0 0 900 450" width="900" height="450" xmlns="http://www.w3.org/2000/svg" xmlns:xlink="http://www.w3.org/1999/xlink" version="1.1"><rect x="0" y="0" width="900" height="450" fill="#491557"></rect><defs><linearGradient id="grad1_0" x1="50%" y1="0%" x2="100%" y2="100%"><stop offset="10%" stop-color="#d52a56" stop-opacity="1"></stop><stop offset="90%" stop-color="#d52a56" stop-opacity="1"></stop></linearGradient></defs><defs><linearGradient id="grad1_1" x1="50%" y1="0%" x2="100%" y2="100%"><stop offset="10%" stop-color="#d52a56" stop-opacity="1"></stop><stop offset="90%" stop-color="#c11d5c" stop-opacity="1"></stop></linearGradient></defs><defs><linearGradient id="grad1_2" x1="50%" y1="0%" x2="100%" y2="100%"><stop offset="10%" stop-color="#ab1560" stop-opacity="1"></stop><stop offset="90%" stop-color="#c11d5c" stop-opacity="1"></stop></linearGradient></defs><defs><linearGradient id="grad1_3" x1="50%" y1="0%" x2="100%" y2="100%"><stop offset="10%" stop-color="#ab1560" stop-opacity="1"></stop><stop offset="90%" stop-color="#931362" stop-opacity="1"></stop></linearGradient></defs><defs><linearGradient id="grad1_4" x1="50%" y1="0%" x2="100%" y2="100%"><stop offset="10%" stop-color="#7b1461" stop-opacity="1"></stop><stop offset="90%" stop-color="#931362" stop-opacity="1"></stop></linearGradient></defs><defs><linearGradient id="grad1_5" x1="50%" y1="0%" x2="100%" y2="100%"><stop offset="10%" stop-color="#7b1461" stop-opacity="1"></stop><stop offset="90%" stop-color="#62155d" stop-opacity="1"></stop></linearGradient></defs><defs><linearGradient id="grad1_6" x1="50%" y1="0%" x2="100%" y2="100%"><stop offset="10%" stop-color="#491557" stop-opacity="1"></stop><stop offset="90%" stop-color="#62155d" stop-opacity="1"></stop></linearGradient></defs><defs><linearGradient id="grad2_0" x1="0%" y1="0%" x2="50%" y2="100%"><stop offset="10%" stop-color="#d52a56" stop-opacity="1"></stop><stop offset="90%" stop-color="#d52a56" stop-opacity="1"></stop></linearGradient></defs><defs><linearGradient id="grad2_1" x1="0%" y1="0%" x2="50%" y2="100%"><stop offset="10%" stop-color="#c11d5c" stop-opacity="1"></stop><stop offset="90%" stop-color="#d52a56" stop-opacity="1"></stop></linearGradient></defs><defs><linearGradient id="grad2_2" x1="0%" y1="0%" x2="50%" y2="100%"><stop offset="10%" stop-color="#c11d5c" stop-opacity="1"></stop><stop offset="90%" stop-color="#ab1560" stop-opacity="1"></stop></linearGradient></defs><defs><linearGradient id="grad2_3" x1="0%" y1="0%" x2="50%" y2="100%"><stop offset="10%" stop-color="#931362" stop-opacity="1"></stop><stop offset="90%" stop-color="#ab1560" stop-opacity="1"></stop></linearGradient></defs><defs><linearGradient id="grad2_4" x1="0%" y1="0%" x2="50%" y2="100%"><stop offset="10%" stop-color="#931362" stop-opacity="1"></stop><stop offset="90%" stop-color="#7b1461" stop-opacity="1"></stop></linearGradient></defs><defs><linearGradient id="grad2_5" x1="0%" y1="0%" x2="50%" y2="100%"><stop offset="10%" stop-color="#62155d" stop-opacity="1"></stop><stop offset="90%" stop-color="#7b1461" stop-opacity="1"></stop></linearGradient></defs><defs><linearGradient id="grad2_6" x1="0%" y1="0%" x2="50%" y2="100%"><stop offset="10%" stop-color="#62155d" stop-opacity="1"></stop><stop offset="90%" stop-color="#491557" stop-opacity="1"></stop></linearGradient></defs><g transform="translate(900, 0)"><path d="M0 370C-20.2 373.1 -40.5 376.1 -58.7 370.4C-76.8 364.7 -92.9 350.1 -112.2 345.2C-131.4 340.3 -153.9 345.1 -173.7 340.8C-193.4 336.6 -210.5 323.3 -223.4 307.4C-236.2 291.5 -244.8 273 -259.5 259.5C-274.2 246 -294.9 237.7 -306.6 222.8C-318.3 207.9 -321 186.4 -330.6 168.4C-340.2 150.5 -356.7 136 -362.4 117.7C-368 99.5 -362.9 77.5 -361.5 57.3C-360.1 37 -362.6 18.5 -365 0L0 0Z" fill="#55155a"></path><path d="M0 317.1C-17.4 319.8 -34.7 322.4 -50.3 317.5C-65.9 312.6 -79.6 300.1 -96.1 295.9C-112.7 291.7 -131.9 295.8 -148.8 292.1C-165.8 288.5 -180.4 277.1 -191.5 263.5C-202.5 249.9 -209.9 234 -222.4 222.4C-235 210.9 -252.8 203.7 -262.8 190.9C-272.8 178.2 -275.1 159.8 -283.3 144.4C-291.6 129 -305.7 116.5 -310.6 100.9C-315.5 85.3 -311 66.4 -309.9 49.1C-308.7 31.7 -310.8 15.9 -312.9 0L0 0Z" fill="#6e145f"></path><path d="M0 264.3C-14.5 266.5 -28.9 268.7 -41.9 264.6C-54.9 260.5 -66.4 250.1 -80.1 246.6C-93.9 243.1 -109.9 246.5 -124 243.4C-138.2 240.4 -150.4 230.9 -159.5 219.6C-168.7 208.2 -174.9 195 -185.4 185.4C-195.8 175.7 -210.7 169.8 -219 159.1C-227.4 148.5 -229.3 133.1 -236.1 120.3C-243 107.5 -254.8 97.1 -258.8 84.1C-262.9 71.1 -259.2 55.4 -258.2 40.9C-257.2 26.4 -259 13.2 -260.7 0L0 0Z" fill="#871361"></path><path d="M0 211.4C-11.6 213.2 -23.1 214.9 -33.5 211.6C-43.9 208.4 -53.1 200.1 -64.1 197.3C-75.1 194.5 -87.9 197.2 -99.2 194.7C-110.5 192.3 -120.3 184.8 -127.6 175.7C-135 166.6 -139.9 156 -148.3 148.3C-156.7 140.6 -168.5 135.8 -175.2 127.3C-181.9 118.8 -183.4 106.5 -188.9 96.2C-194.4 86 -203.8 77.7 -207.1 67.3C-210.3 56.9 -207.3 44.3 -206.6 32.7C-205.8 21.1 -207.2 10.6 -208.6 0L0 0Z" fill="#9f1461"></path><path d="M0 158.6C-8.7 159.9 -17.4 161.2 -25.1 158.7C-32.9 156.3 -39.8 150.1 -48.1 148C-56.3 145.9 -66 147.9 -74.4 146.1C-82.9 144.2 -90.2 138.6 -95.7 131.8C-101.2 124.9 -104.9 117 -111.2 111.2C-117.5 105.4 -126.4 101.9 -131.4 95.5C-136.4 89.1 -137.6 79.9 -141.7 72.2C-145.8 64.5 -152.9 58.3 -155.3 50.5C-157.7 42.6 -155.5 33.2 -154.9 24.5C-154.3 15.9 -155.4 7.9 -156.4 0L0 0Z" fill="#b6195e"></path><path d="M0 105.7C-5.8 106.6 -11.6 107.5 -16.8 105.8C-22 104.2 -26.5 100 -32 98.6C-37.6 97.2 -44 98.6 -49.6 97.4C-55.3 96.2 -60.1 92.4 -63.8 87.8C-67.5 83.3 -70 78 -74.1 74.1C-78.3 70.3 -84.3 67.9 -87.6 63.6C-90.9 59.4 -91.7 53.3 -94.4 48.1C-97.2 43 -101.9 38.8 -103.5 33.6C-105.2 28.4 -103.7 22.1 -103.3 16.4C-102.9 10.6 -103.6 5.3 -104.3 0L0 0Z" fill="#cb2359"></path><path d="M0 52.9C-2.9 53.3 -5.8 53.7 -8.4 52.9C-11 52.1 -13.3 50 -16 49.3C-18.8 48.6 -22 49.3 -24.8 48.7C-27.6 48.1 -30.1 46.2 -31.9 43.9C-33.7 41.6 -35 39 -37.1 37.1C-39.2 35.1 -42.1 34 -43.8 31.8C-45.5 29.7 -45.9 26.6 -47.2 24.1C-48.6 21.5 -51 19.4 -51.8 16.8C-52.6 14.2 -51.8 11.1 -51.6 8.2C-51.4 5.3 -51.8 2.6 -52.1 0L0 0Z" fill="#d52a56"></path></g><g transform="translate(0, 450)"><path d="M0 -381C19.6 -378.1 39.3 -375.1 59 -372.4C78.7 -369.6 98.5 -367.1 117.4 -361.4C136.3 -355.7 154.4 -346.9 172.1 -337.7C189.7 -328.4 207.1 -318.7 223.4 -307.4C239.7 -296.1 255 -283.2 268.7 -268.7C282.4 -254.2 294.6 -238.2 304.2 -221C313.8 -203.8 320.8 -185.4 329.7 -168C338.6 -150.6 349.4 -134.3 358.5 -116.5C367.7 -98.7 375 -79.5 377.8 -59.8C380.6 -40.2 378.8 -20.1 377 0L0 0Z" fill="#55155a"></path><path d="M0 -326.6C16.8 -324 33.6 -321.5 50.6 -319.2C67.5 -316.8 84.4 -314.6 100.7 -309.8C116.9 -304.9 132.3 -297.4 147.5 -289.4C162.6 -281.5 177.5 -273.2 191.5 -263.5C205.4 -253.8 218.5 -242.7 230.3 -230.3C242.1 -217.9 252.5 -204.2 260.7 -189.4C268.9 -174.7 274.9 -158.9 282.6 -144C290.2 -129.1 299.5 -115.1 307.3 -99.9C315.1 -84.6 321.4 -68.1 323.8 -51.3C326.2 -34.4 324.7 -17.2 323.1 0L0 0Z" fill="#6e145f"></path><path d="M0 -272.1C14 -270 28 -267.9 42.1 -266C56.2 -264 70.4 -262.2 83.9 -258.1C97.4 -254.1 110.3 -247.8 122.9 -241.2C135.5 -234.6 147.9 -227.7 159.5 -219.6C171.2 -211.5 182.1 -202.3 191.9 -191.9C201.7 -181.6 210.4 -170.2 217.3 -157.9C224.1 -145.6 229.1 -132.4 235.5 -120C241.9 -107.6 249.6 -95.9 256.1 -83.2C262.6 -70.5 267.9 -56.8 269.9 -42.7C271.8 -28.7 270.6 -14.3 269.3 0L0 0Z" fill="#871361"></path><path d="M0 -217.7C11.2 -216 22.4 -214.3 33.7 -212.8C45 -211.2 56.3 -209.8 67.1 -206.5C77.9 -203.3 88.2 -198.3 98.3 -193C108.4 -187.7 118.3 -182.1 127.6 -175.7C137 -169.2 145.7 -161.8 153.5 -153.5C161.4 -145.3 168.3 -136.1 173.8 -126.3C179.3 -116.5 183.3 -105.9 188.4 -96C193.5 -86.1 199.7 -76.7 204.9 -66.6C210.1 -56.4 214.3 -45.4 215.9 -34.2C217.5 -23 216.4 -11.5 215.4 0L0 0Z" fill="#9f1461"></path><path d="M0 -163.3C8.4 -162 16.8 -160.8 25.3 -159.6C33.7 -158.4 42.2 -157.3 50.3 -154.9C58.4 -152.5 66.2 -148.7 73.7 -144.7C81.3 -140.8 88.7 -136.6 95.7 -131.8C102.7 -126.9 109.3 -121.4 115.2 -115.2C121 -109 126.3 -102.1 130.4 -94.7C134.5 -87.3 137.5 -79.4 141.3 -72C145.1 -64.5 149.8 -57.5 153.7 -49.9C157.6 -42.3 160.7 -34.1 161.9 -25.6C163.1 -17.2 162.3 -8.6 161.6 0L0 0Z" fill="#b6195e"></path><path d="M0 -108.9C5.6 -108 11.2 -107.2 16.9 -106.4C22.5 -105.6 28.1 -104.9 33.6 -103.3C39 -101.6 44.1 -99.1 49.2 -96.5C54.2 -93.8 59.2 -91.1 63.8 -87.8C68.5 -84.6 72.8 -80.9 76.8 -76.8C80.7 -72.6 84.2 -68.1 86.9 -63.1C89.6 -58.2 91.6 -53 94.2 -48C96.7 -43 99.8 -38.4 102.4 -33.3C105 -28.2 107.1 -22.7 107.9 -17.1C108.7 -11.5 108.2 -5.7 107.7 0L0 0Z" fill="#cb2359"></path><path d="M0 -54.4C2.8 -54 5.6 -53.6 8.4 -53.2C11.2 -52.8 14.1 -52.4 16.8 -51.6C19.5 -50.8 22.1 -49.6 24.6 -48.2C27.1 -46.9 29.6 -45.5 31.9 -43.9C34.2 -42.3 36.4 -40.5 38.4 -38.4C40.3 -36.3 42.1 -34 43.5 -31.6C44.8 -29.1 45.8 -26.5 47.1 -24C48.4 -21.5 49.9 -19.2 51.2 -16.6C52.5 -14.1 53.6 -11.4 54 -8.5C54.4 -5.7 54.1 -2.9 53.9 0L0 0Z" fill="#d52a56"></path></g></svg>